<svg xmlns="http://www.w3.org/2000/svg" width="198.873" height="92.378" viewBox="0 0 198.873 92.378">
  <g id="Group_14607" data-name="Group 14607" transform="translate(-736.572 -71.344)">
    <g id="Group_14596" data-name="Group 14596" transform="translate(736.572 71.344)">
      <g id="Group_14595" data-name="Group 14595" transform="translate(0)">
        <path id="Path_45440" data-name="Path 45440" d="M336.724,277.773a24.9,24.9,0,0,1,3.682-1.885c5.737-2.4,12.071-1.541,15.153,3.253,1.113,1.713,1.455,4.283-1.882,5.309.084-5.479-4.539-11.044-10.874-8.219a15.713,15.713,0,0,0-3.766,2.4c9.846,3.939,15.839,11.816,8.048,18.58-2.227,1.881-7.193,3.595-13.1,4.109,12.928,3.511,14.47,15.069,7.792,21.658-8.475,8.307-22.945,10.275-35.872,3.255a56.373,56.373,0,0,1-18.321,10.616c-1.8.6-3.682,1.114-5.566,1.541,7.962,12.928,24.828,13.355,33.219,4.025,1.113-1.285,1.456-.6.514.428-8.819,10.274-27.14,10.018-37.072-3.768-8.988,1.456-17.721.174-23.029-6.42-1.37-1.627-1.969-4.624,1.284-5.65,2.567,10.016,11.814,12.244,20.976,10.872a35.145,35.145,0,0,1-4.452-10.273c-12.072-.687-15.326-12.244-12.671-22.432,5.308-19.349,23.715-30.052,44.006-31.592A80.183,80.183,0,0,1,336.724,277.773Zm-55.393,59.416a36.838,36.838,0,0,0,5.479-1.626c14.64-5.651,20.891-16.866,29.452-31.935l3.767-6.42c3.938-6.594,8.561-13.956,15.239-18.494a72.566,72.566,0,0,0-30.307-3.425c-18.495,1.883-35.017,15.668-38.186,32.448-1.368,7.278-.514,15.582,6.08,17.81a32.525,32.525,0,0,1-.6-5.138c-.342-7.277,3.082-19.519,11.387-27.91,16.009-16.095,31.334-9.588,23.372,10.1-3.766,9.418-11.985,19.606-22.944,23.287a37.275,37.275,0,0,1-5.907,1.458A28.923,28.923,0,0,0,281.331,337.188Zm-3.424-11.216a17.973,17.973,0,0,0,3.424-.6c13.184-3.253,20.632-14.47,24.229-22.859,6.592-15.326-1.97-24.059-15.753-9.333C281.245,302.258,276.707,315.87,277.907,325.973Zm46.4-24.4-3.767,6.677a66.642,66.642,0,0,1-13.613,17.039c11.387,5.908,24.914,4.28,30.649-6.163C341.689,311.505,338.864,301.4,324.31,301.573Zm13.528-21.917c-3.511,3.34-5.994,7.962-8.477,12.5l-4.109,7.707c8.9.855,14.983-1.97,17.551-4.794C347.6,289.588,345.971,283,337.838,279.656Z" transform="translate(-254.546 -257.663)" fill="#940c33"/>
        <path id="Path_45441" data-name="Path 45441" d="M425.629,310.392c-2.911,5.224,2.141,3.167,5.394.513a43.292,43.292,0,0,0,9.844-11.3c.428-.684.941-.256.684.344a48.84,48.84,0,0,1-10.529,12.243c-2.313,1.884-8.9,5.822-10.874,1.711-.857-1.624-.6-4.364,1.713-8.56l9.161-16.524c9.33-16.438,22.173-34.245,38.7-40.068,11.644-4.024,22.09-4.624,29.195,4.2,1.37,1.627,1.968,4.622-1.284,5.649-3.51-13.441-16.267-13.1-27.312-8.817-14.639,5.651-25.684,26.627-34.074,41.694Z" transform="translate(-325.135 -245.934)" fill="#940c33"/>
        <path id="Path_45442" data-name="Path 45442" d="M469.874,324.924c2.569-4.2,5.051-4.708,9.16-4.708l-11.986,21.661c-2.91,5.224,1.2,3,4.709.513a40.465,40.465,0,0,0,9.675-11.3c.427-.684,1.028-.256.684.344-5.565,9.331-13.1,15.669-17.979,15.669-1.97,0-3.768-1.8-2.74-5.91-3.167,3.769-6.507,5.91-9.675,5.91-5.993-.26-5.565-7.365-2.054-13.7,3.169-5.738,10.617-14.9,17.466-13.7C469.36,320.13,470.216,322.013,469.874,324.924Zm-13.528,8.391c-3.852,6.933-5.051,11.987-2.054,11.987,2.226,0,7.02-5.054,10.873-11.987s4.709-11.643,2.312-11.643C465.251,321.756,460.2,326.381,456.346,333.315Z" transform="translate(-336.849 -277.418)" fill="#940c33"/>
        <path id="Path_45443" data-name="Path 45443" d="M530.993,331.51c-5.565,9.331-13.1,15.669-17.98,15.669-2.569,0-4.881-3.083-.942-10.276l6.593-11.815c2.654-4.794-.77-3.765-4.967-.426a29.768,29.768,0,0,0-6.163,6.763l-8.477,15.239c-2.482,0-5.565-1.625-2.826-6.678L507.1,320.3c2.4,0,5.394,1.627,3.169,6.078,3.423-3.425,8.047-6.593,11.215-6.593,2.483,0,4.965,3.083,1.026,10.274l-6.59,11.9c-2.912,5.224,1.284,3,4.708.513a40.474,40.474,0,0,0,9.674-11.3C530.735,330.483,531.335,330.911,530.993,331.51Z" transform="translate(-357.388 -277.498)" fill="#940c33"/>
        <path id="Path_45444" data-name="Path 45444" d="M568.8,329.711c-1.713-.084-3.082-1.2-2.825-2.825.342-2.054,2.825-3.339,5.136-2.825,1.113-2.14-.256-3.082-2.054-3.167-4.624-.344-9.333,5.992-11.9,10.1a23.936,23.936,0,0,0-2.654,5.05c-1.626,3.682-1.626,7.106.6,8.562,3.681,2.227,9.331.343,13.7-2.91a39.5,39.5,0,0,0,9.247-10.532c.428-.684,1.026-.256.684.344a37.1,37.1,0,0,1-9.332,11.045c-4.622,3.6-9.76,5.735-15.923,4.024-4.281-1.115-7.449-6.164-4.109-13.529,3.167-7.106,10.53-13.27,18.749-13.27C576.508,319.952,575.652,329.8,568.8,329.711Z" transform="translate(-379.962 -277.498)" fill="#940c33"/>
      </g>
    </g>
  </g>
</svg>
