<svg xmlns="http://www.w3.org/2000/svg" xmlns:xlink="http://www.w3.org/1999/xlink" width="1483.412" height="1145.886" viewBox="0 0 1483.412 1145.886">
  <defs>
    <filter id="Ellipse_1076" x="68.278" y="43.822" width="86.542" height="86.542" filterUnits="userSpaceOnUse">
      <feOffset dx="4" dy="4" input="SourceAlpha"/>
      <feGaussianBlur stdDeviation="2" result="blur"/>
      <feFlood flood-opacity="0.38"/>
      <feComposite operator="in" in2="blur"/>
      <feComposite in="SourceGraphic"/>
    </filter>
    <filter id="Path_52488" x="76.277" y="52.194" width="69.797" height="69.796" filterUnits="userSpaceOnUse">
      <feOffset dx="4" dy="4" input="SourceAlpha"/>
      <feGaussianBlur stdDeviation="2" result="blur-2"/>
      <feFlood flood-opacity="0.169"/>
      <feComposite operator="in" in2="blur-2"/>
      <feComposite in="SourceGraphic"/>
    </filter>
    <filter id="Path_52932" x="1039.506" y="43.822" width="86.542" height="86.542" filterUnits="userSpaceOnUse">
      <feOffset dx="4" dy="4" input="SourceAlpha"/>
      <feGaussianBlur stdDeviation="2" result="blur-3"/>
      <feFlood flood-opacity="0.38"/>
      <feComposite operator="in" in2="blur-3"/>
      <feComposite in="SourceGraphic"/>
    </filter>
    <filter id="Path_52931" x="1047.88" y="52.194" width="69.797" height="69.796" filterUnits="userSpaceOnUse">
      <feOffset dx="4" dy="4" input="SourceAlpha"/>
      <feGaussianBlur stdDeviation="2" result="blur-4"/>
      <feFlood flood-opacity="0.169"/>
      <feComposite operator="in" in2="blur-4"/>
      <feComposite in="SourceGraphic"/>
    </filter>
    <filter id="Path_52932-2" x="333.403" y="269.614" width="86.542" height="86.542" filterUnits="userSpaceOnUse">
      <feOffset dx="4" dy="4" input="SourceAlpha"/>
      <feGaussianBlur stdDeviation="2" result="blur-5"/>
      <feFlood flood-opacity="0.38"/>
      <feComposite operator="in" in2="blur-5"/>
      <feComposite in="SourceGraphic"/>
    </filter>
    <filter id="Path_52931-2" x="341.776" y="277.985" width="69.797" height="69.796" filterUnits="userSpaceOnUse">
      <feOffset dx="4" dy="4" input="SourceAlpha"/>
      <feGaussianBlur stdDeviation="2" result="blur-6"/>
      <feFlood flood-opacity="0.169"/>
      <feComposite operator="in" in2="blur-6"/>
      <feComposite in="SourceGraphic"/>
    </filter>
    <filter id="Path_52932-3" x="539.209" y="486.331" width="86.542" height="86.542" filterUnits="userSpaceOnUse">
      <feOffset dx="4" dy="4" input="SourceAlpha"/>
      <feGaussianBlur stdDeviation="2" result="blur-7"/>
      <feFlood flood-opacity="0.38"/>
      <feComposite operator="in" in2="blur-7"/>
      <feComposite in="SourceGraphic"/>
    </filter>
    <filter id="Path_52931-3" x="547.583" y="494.703" width="69.797" height="69.796" filterUnits="userSpaceOnUse">
      <feOffset dx="4" dy="4" input="SourceAlpha"/>
      <feGaussianBlur stdDeviation="2" result="blur-8"/>
      <feFlood flood-opacity="0.169"/>
      <feComposite operator="in" in2="blur-8"/>
      <feComposite in="SourceGraphic"/>
    </filter>
    <filter id="Path_52932-4" x="338.949" y="711.207" width="86.542" height="86.542" filterUnits="userSpaceOnUse">
      <feOffset dx="4" dy="4" input="SourceAlpha"/>
      <feGaussianBlur stdDeviation="2" result="blur-9"/>
      <feFlood flood-opacity="0.38"/>
      <feComposite operator="in" in2="blur-9"/>
      <feComposite in="SourceGraphic"/>
    </filter>
    <filter id="Path_52931-4" x="347.322" y="719.579" width="69.797" height="69.796" filterUnits="userSpaceOnUse">
      <feOffset dx="4" dy="4" input="SourceAlpha"/>
      <feGaussianBlur stdDeviation="2" result="blur-10"/>
      <feFlood flood-opacity="0.169"/>
      <feComposite operator="in" in2="blur-10"/>
      <feComposite in="SourceGraphic"/>
    </filter>
    <filter id="Path_52932-5" x="558.548" y="927.979" width="86.542" height="86.542" filterUnits="userSpaceOnUse">
      <feOffset dx="4" dy="4" input="SourceAlpha"/>
      <feGaussianBlur stdDeviation="2" result="blur-11"/>
      <feFlood flood-opacity="0.38"/>
      <feComposite operator="in" in2="blur-11"/>
      <feComposite in="SourceGraphic"/>
    </filter>
    <filter id="Path_52931-5" x="566.921" y="936.351" width="69.797" height="69.796" filterUnits="userSpaceOnUse">
      <feOffset dx="4" dy="4" input="SourceAlpha"/>
      <feGaussianBlur stdDeviation="2" result="blur-12"/>
      <feFlood flood-opacity="0.169"/>
      <feComposite operator="in" in2="blur-12"/>
      <feComposite in="SourceGraphic"/>
    </filter>
    <filter id="Path_52932-6" x="1331.798" y="927.979" width="86.542" height="86.542" filterUnits="userSpaceOnUse">
      <feOffset dx="4" dy="4" input="SourceAlpha"/>
      <feGaussianBlur stdDeviation="2" result="blur-13"/>
      <feFlood flood-opacity="0.38"/>
      <feComposite operator="in" in2="blur-13"/>
      <feComposite in="SourceGraphic"/>
    </filter>
    <filter id="Path_52931-6" x="1340.171" y="936.351" width="69.797" height="69.796" filterUnits="userSpaceOnUse">
      <feOffset dx="4" dy="4" input="SourceAlpha"/>
      <feGaussianBlur stdDeviation="2" result="blur-14"/>
      <feFlood flood-opacity="0.169"/>
      <feComposite operator="in" in2="blur-14"/>
      <feComposite in="SourceGraphic"/>
    </filter>
    <filter id="Path_52932-7" x="814.021" y="711.207" width="86.542" height="86.542" filterUnits="userSpaceOnUse">
      <feOffset dx="4" dy="4" input="SourceAlpha"/>
      <feGaussianBlur stdDeviation="2" result="blur-15"/>
      <feFlood flood-opacity="0.38"/>
      <feComposite operator="in" in2="blur-15"/>
      <feComposite in="SourceGraphic"/>
    </filter>
    <filter id="Path_52931-7" x="822.394" y="719.579" width="69.797" height="69.796" filterUnits="userSpaceOnUse">
      <feOffset dx="4" dy="4" input="SourceAlpha"/>
      <feGaussianBlur stdDeviation="2" result="blur-16"/>
      <feFlood flood-opacity="0.169"/>
      <feComposite operator="in" in2="blur-16"/>
      <feComposite in="SourceGraphic"/>
    </filter>
    <filter id="Path_52932-8" x="1012.955" y="486.331" width="86.542" height="86.542" filterUnits="userSpaceOnUse">
      <feOffset dx="4" dy="4" input="SourceAlpha"/>
      <feGaussianBlur stdDeviation="2" result="blur-17"/>
      <feFlood flood-opacity="0.38"/>
      <feComposite operator="in" in2="blur-17"/>
      <feComposite in="SourceGraphic"/>
    </filter>
    <filter id="Path_52931-8" x="1021.328" y="494.703" width="69.797" height="69.796" filterUnits="userSpaceOnUse">
      <feOffset dx="4" dy="4" input="SourceAlpha"/>
      <feGaussianBlur stdDeviation="2" result="blur-18"/>
      <feFlood flood-opacity="0.169"/>
      <feComposite operator="in" in2="blur-18"/>
      <feComposite in="SourceGraphic"/>
    </filter>
    <filter id="Path_52932-9" x="807.97" y="269.614" width="86.542" height="86.542" filterUnits="userSpaceOnUse">
      <feOffset dx="4" dy="4" input="SourceAlpha"/>
      <feGaussianBlur stdDeviation="2" result="blur-19"/>
      <feFlood flood-opacity="0.38"/>
      <feComposite operator="in" in2="blur-19"/>
      <feComposite in="SourceGraphic"/>
    </filter>
    <filter id="Path_52931-9" x="816.344" y="277.985" width="69.797" height="69.796" filterUnits="userSpaceOnUse">
      <feOffset dx="4" dy="4" input="SourceAlpha"/>
      <feGaussianBlur stdDeviation="2" result="blur-20"/>
      <feFlood flood-opacity="0.169"/>
      <feComposite operator="in" in2="blur-20"/>
      <feComposite in="SourceGraphic"/>
    </filter>
  </defs>
  <g id="Group_14745" data-name="Group 14745" transform="translate(-199.723 -4041.285)">
    <path id="Path_52460" data-name="Path 52460" d="M1451.235,946.831Z" transform="translate(144.791 4033.567)" fill="#302b2c"/>
    <path id="Path_52477" data-name="Path 52477" d="M196.118,270.833V296.6l19.728-12.883Z" transform="translate(278.036 4364.89)" fill="#3a5d8a"/>
    <path id="Path_52478" data-name="Path 52478" d="M209.193,270.833V296.6l19.728-12.883Z" transform="translate(299.557 4364.89)" fill="#3a5d8a"/>
    <path id="Path_52479" data-name="Path 52479" d="M222.269,270.833V296.6L242,283.714Z" transform="translate(321.078 4364.89)" fill="#3a5d8a"/>
    <path id="Path_52480" data-name="Path 52480" d="M235.344,270.833V296.6l19.728-12.883Z" transform="translate(342.599 4364.89)" fill="#3a5d8a"/>
    <path id="Path_52485" data-name="Path 52485" d="M406.063,55.525a9.353,9.353,0,1,1-9.353-9.353A9.352,9.352,0,0,1,406.063,55.525Z" transform="translate(592.8 3995.113)" fill="#16263f"/>
    <path id="Path_52486" data-name="Path 52486" d="M421.707,55.525a9.351,9.351,0,1,1-9.351-9.353A9.35,9.35,0,0,1,421.707,55.525Z" transform="translate(618.559 3995.113)" fill="#16263f"/>
    <path id="Path_52487" data-name="Path 52487" d="M437.361,55.525a9.353,9.353,0,1,1-9.353-9.353A9.351,9.351,0,0,1,437.361,55.525Z" transform="translate(644.314 3995.113)" fill="#16263f"/>
    <text id="December_2021_" data-name="December 2021 " transform="translate(209 4175.38)" font-size="25" font-family="Quicksand-Bold, Quicksand" font-weight="700"><tspan x="6.569" y="25">December 2021 </tspan></text>
    <text id="February_2022" data-name="February 2022" transform="translate(475 4415.222)" font-size="25" font-family="Quicksand-Bold, Quicksand" font-weight="700"><tspan x="15.694" y="25">February 2022</tspan></text>
    <text id="April_2022" data-name="April 2022" transform="translate(675.261 4635.722)" font-size="25" font-family="Quicksand-Bold, Quicksand" font-weight="700"><tspan x="43.357" y="25">April 2022</tspan></text>
    <text id="Q3_2022" data-name="Q3 2022" transform="translate(475 4850.697)" font-size="25" font-family="Quicksand-Bold, Quicksand" font-weight="700"><tspan x="54.919" y="25">Q3 2022</tspan></text>
    <text id="Q1_2023" data-name="Q1 2023" transform="translate(694.599 5073.298)" font-size="25" font-family="Quicksand-Bold, Quicksand" font-weight="700"><tspan x="57.069" y="25">Q1 2023</tspan></text>
    <text id="Q2_2023" data-name="Q2 2023" transform="translate(1467.849 5073.298)" font-size="25" font-family="Quicksand-Bold, Quicksand" font-weight="700"><tspan x="54.919" y="25">Q2 2023</tspan></text>
    <text id="Q4_2022" data-name="Q4 2022" transform="translate(950.073 4850.697)" font-size="25" font-family="Quicksand-Bold, Quicksand" font-weight="700"><tspan x="52.594" y="25">Q4 2022</tspan></text>
    <text id="Q2_2022" data-name="Q2 2022" transform="translate(1149.007 4635.722)" font-size="25" font-family="Quicksand-Bold, Quicksand" font-weight="700"><tspan x="54.744" y="25">Q2 2022</tspan></text>
    <text id="February_2022-2" data-name="February 2022" transform="translate(944.022 4415.222)" font-size="25" font-family="Quicksand-Bold, Quicksand" font-weight="700"><tspan x="15.694" y="25">February 2022</tspan></text>
    <text id="January_2022" data-name="January 2022" transform="translate(1187.832 4175.38)" font-size="25" font-family="Quicksand-Bold, Quicksand" font-weight="700"><tspan x="16.357" y="25">January 2022</tspan></text>
    <text id="Blanc_Project_Launches" data-name="Blanc Project Launches" transform="translate(209 4220.254)" font-size="16" font-family="Quicksand-Bold, Quicksand" font-weight="700"><tspan x="8.497" y="16">Blanc Project Launches</tspan></text>
    <text id="Integration_with_Ox_Wallet_" data-name="Integration with Ox Wallet " transform="translate(466.285 4460.095)" font-size="16" font-family="Quicksand-Bold, Quicksand" font-weight="700"><tspan x="11.385" y="16">Integration with Ox Wallet </tspan></text>
    <text id="Blanc_Vineyard_Location_Announcement" data-name="Blanc Vineyard Location Announcement" transform="translate(666.546 4680.595)" font-size="16" font-family="Quicksand-Bold, Quicksand" font-weight="700"><tspan x="17.617" y="16">Blanc Vineyard Location </tspan><tspan x="53.817" y="49">Announcement</tspan></text>
    <text id="Public_Exchange_Launch" data-name="Public Exchange Launch" transform="translate(466.285 4895.57)" font-size="16" font-family="Quicksand-Bold, Quicksand" font-weight="700"><tspan x="20.297" y="16">Public Exchange Launch</tspan></text>
    <text id="Blanc_Wines_New_Season_Harvest" data-name="Blanc Wines New Season Harvest" transform="translate(685.884 5118.171)" font-size="16" font-family="Quicksand-Bold, Quicksand" font-weight="700"><tspan x="16.361" y="16">Blanc Wines New Season </tspan><tspan x="80.825" y="49">Harvest</tspan></text>
    <text id="First_Blanc_Wines_Launches_Available_to_public" data-name="First Blanc Wines Launches &amp; Available to public" transform="translate(1459.135 5118.171)" font-size="16" font-family="Quicksand-Bold, Quicksand" font-weight="700"><tspan x="7.841" y="16">First Blanc Wines Launches </tspan><tspan x="33.201" y="49">&amp; Available to public</tspan></text>
    <text id="Blanc_Wine_Club_Opens" data-name="Blanc Wine Club Opens" transform="translate(941.358 4895.57)" font-size="16" font-family="Quicksand-Bold, Quicksand" font-weight="700"><tspan x="23.713" y="16">Blanc Wine Club Opens</tspan></text>
    <text id="Blanc_Staking_Opens" data-name="Blanc Staking Opens" transform="translate(1140.292 4680.595)" font-size="16" font-family="Quicksand-Bold, Quicksand" font-weight="700"><tspan x="32.305" y="16">Blanc Staking Opens</tspan></text>
    <text id="Blanc_Token_available_for_purchase" data-name="Blanc Token available for purchase" transform="translate(935.307 4460.095)" font-size="16" font-family="Quicksand-Bold, Quicksand" font-weight="700"><tspan x="13.637" y="16">Blanc Token available for </tspan><tspan x="75.893" y="49">purchase</tspan></text>
    <text id="Blanc_Token_registered_on_Ox_Chain" data-name="Blanc Token registered on Ox Chain" transform="translate(1187.832 4220.254)" font-size="16" font-family="Quicksand-Bold, Quicksand" font-weight="700"><tspan x="9.689" y="16">Blanc Token registered </tspan><tspan x="52.265" y="49">on Ox Chain</tspan></text>
    <g id="Group_14744" data-name="Group 14744">
      <g id="Group_14662" data-name="Group 14662" transform="translate(1433.362 4049.219)">
        <g id="Group_14659" data-name="Group 14659" transform="translate(0 0.046)">
          <path id="Path_52448" data-name="Path 52448" d="M562.633,57.079a4.02,4.02,0,0,1-2.828-1.164,5.384,5.384,0,0,1-.479-.609,3.587,3.587,0,0,1-.368-.688,3.835,3.835,0,0,1-.238-.741,3.783,3.783,0,0,1-.079-.767,3.981,3.981,0,1,1,7.962,0,3.963,3.963,0,0,1-.077.767,4.244,4.244,0,0,1-.238.741,3.462,3.462,0,0,1-.37.688,5.7,5.7,0,0,1-.476.609A4.014,4.014,0,0,1,562.633,57.079Z" transform="translate(-558.64 -49.187)" fill="#8f9296"/>
        </g>
        <g id="Group_14660" data-name="Group 14660" transform="translate(21.247)">
          <path id="Path_52449" data-name="Path 52449" d="M588.1,426.03a3.981,3.981,0,0,1,3.969-3.969h0a3.979,3.979,0,0,1,3.969,3.969h0A3.962,3.962,0,0,1,592.068,430h0A3.964,3.964,0,0,1,588.1,426.03Zm-21.244,0a3.98,3.98,0,0,1,3.969-3.969h0a3.982,3.982,0,0,1,3.969,3.969h0A3.965,3.965,0,0,1,570.824,430h0A3.964,3.964,0,0,1,566.855,426.03Zm42.467-.4a3.972,3.972,0,0,1,3.6-4.313h0a3.99,3.99,0,0,1,4.316,3.6h0a4.008,4.008,0,0,1-3.6,4.313h-.37A3.943,3.943,0,0,1,609.322,425.633Zm21.062-2.672a3.955,3.955,0,0,1,3.069-4.683h0a3.979,3.979,0,0,1,4.707,3.069h0a4,4,0,0,1-3.1,4.71h0a4.259,4.259,0,0,1-.818.079h0A3.952,3.952,0,0,1,630.384,422.961ZM651,417.934a3.989,3.989,0,0,1,2.514-5.027h0a3.982,3.982,0,0,1,5.027,2.54h0a3.955,3.955,0,0,1-2.54,5h0a3.958,3.958,0,0,1-1.244.212h0A3.962,3.962,0,0,1,651,417.934Zm19.9-7.382a3.966,3.966,0,0,1,1.932-5.265h0a3.966,3.966,0,0,1,5.266,1.932h0a3.958,3.958,0,0,1-1.932,5.265h0a3.73,3.73,0,0,1-1.667.37h0A3.956,3.956,0,0,1,670.893,410.551Zm18.918-9.578a3.959,3.959,0,0,1,1.323-5.451h0a3.947,3.947,0,0,1,5.448,1.3h0a3.993,3.993,0,0,1-1.323,5.477h0a4.107,4.107,0,0,1-2.061.582h0A3.99,3.99,0,0,1,689.812,400.973Zm17.728-11.7a3.931,3.931,0,0,1,.688-5.556h0a3.933,3.933,0,0,1,5.554.688h0a3.957,3.957,0,0,1-.685,5.556h0a3.842,3.842,0,0,1-2.434.847h0A3.908,3.908,0,0,1,707.539,389.278Zm16.273-13.6a4,4,0,0,1,.053-5.636h0a3.969,3.969,0,0,1,5.609.079h0a3.971,3.971,0,0,1-.053,5.609h0a4.017,4.017,0,0,1-2.778,1.138h0A4.033,4.033,0,0,1,723.812,375.678Zm14.632-15.373a3.985,3.985,0,0,1-.582-5.583h0a3.958,3.958,0,0,1,5.58-.582h0a3.956,3.956,0,0,1,.585,5.583h0a4.02,4.02,0,0,1-3.1,1.455h0A4.015,4.015,0,0,1,738.444,360.305Zm12.806-16.934a3.953,3.953,0,0,1-1.193-5.477h0a3.952,3.952,0,0,1,5.48-1.217h0a3.952,3.952,0,0,1,1.191,5.477h0a3.947,3.947,0,0,1-3.334,1.852h0A3.967,3.967,0,0,1,751.25,343.371Zm10.819-18.283a3.924,3.924,0,0,1-1.823-5.292v-.026a3.958,3.958,0,0,1,5.318-1.8h0a3.956,3.956,0,0,1,1.8,5.318h0a3.927,3.927,0,0,1-3.543,2.2h0A3.683,3.683,0,0,1,762.069,325.088Zm8.655-19.368a3.993,3.993,0,0,1-2.434-5.08h0a3.978,3.978,0,0,1,5.08-2.408h0a3.944,3.944,0,0,1,2.408,5.054h0a3.971,3.971,0,0,1-3.731,2.646h0A4.466,4.466,0,0,1,770.724,305.72Zm6.377-20.268a3.994,3.994,0,0,1-2.993-4.763h0a3.957,3.957,0,0,1,4.765-2.963h0a3.977,3.977,0,0,1,2.99,4.763h0a4.009,4.009,0,0,1-3.89,3.069h0A3.286,3.286,0,0,1,777.1,285.452Zm4-20.823a3.994,3.994,0,0,1-3.493-4.392h0A3.977,3.977,0,0,1,782,256.717h0a3.976,3.976,0,0,1,3.493,4.392h0a3.935,3.935,0,0,1-3.942,3.519h-.45Zm-2.328-25.136h0a3.964,3.964,0,0,1,3.969-3.969h0a3.964,3.964,0,0,1,3.969,3.969h0a3.964,3.964,0,0,1-3.969,3.969h0A3.964,3.964,0,0,1,778.768,239.492ZM777.6,218.748a3.956,3.956,0,0,1,3.466-4.392h0a4.006,4.006,0,0,1,4.419,3.493h0a3.966,3.966,0,0,1-3.519,4.392h0a2.422,2.422,0,0,1-.45.026h0A3.928,3.928,0,0,1,777.6,218.748Zm-3.519-20.453h0a3.953,3.953,0,0,1,2.963-4.763h0a3.969,3.969,0,0,1,4.76,2.963h0a3.956,3.956,0,0,1-2.963,4.763h0a3.6,3.6,0,0,1-.9.106h0A3.956,3.956,0,0,1,774.085,198.295Zm-5.848-19.924a3.974,3.974,0,0,1,2.408-5.08h0a3.98,3.98,0,0,1,5.08,2.408h0a3.978,3.978,0,0,1-2.41,5.08h0a3.927,3.927,0,0,1-1.323.212h0A3.98,3.98,0,0,1,768.237,178.371Zm-8.07-19.13h0a3.981,3.981,0,0,1,1.8-5.318h0a3.962,3.962,0,0,1,5.321,1.8h0a3.961,3.961,0,0,1-1.8,5.318h0a3.779,3.779,0,0,1-1.749.423h0A3.994,3.994,0,0,1,760.167,159.241Zm-10.187-18.1h-.029a3.982,3.982,0,0,1,1.217-5.477h0a3.978,3.978,0,0,1,5.48,1.191h0a3.963,3.963,0,0,1-1.193,5.477h0a3.745,3.745,0,0,1-2.14.635h0A3.882,3.882,0,0,1,749.98,141.143Zm-12.2-16.8h0a3.935,3.935,0,0,1,.582-5.583h0a3.95,3.95,0,0,1,5.556.556h0a3.989,3.989,0,0,1-.556,5.609h0a4.034,4.034,0,0,1-2.514.873h0A4,4,0,0,1,737.783,124.341Zm-14.024-15.32a3.969,3.969,0,0,1-.056-5.609h0a3.949,3.949,0,0,1,5.612-.079h0a3.971,3.971,0,0,1,.053,5.609h0a3.929,3.929,0,0,1-2.831,1.191h0A3.99,3.99,0,0,1,723.759,109.021ZM708.1,95.368a3.991,3.991,0,0,1-.691-5.583h0a3.963,3.963,0,0,1,5.559-.688h0a3.966,3.966,0,0,1,.712,5.583h0a4.041,4.041,0,0,1-3.146,1.508h0A4.023,4.023,0,0,1,708.1,95.368ZM691,83.567a3.956,3.956,0,0,1-1.323-5.451h0a3.959,3.959,0,0,1,5.451-1.323h0a3.961,3.961,0,0,1,1.323,5.451h0a3.939,3.939,0,0,1-3.389,1.905h0A3.865,3.865,0,0,1,691,83.567ZM672.663,73.8a3.963,3.963,0,0,1-1.929-5.265h0A3.966,3.966,0,0,1,676,66.607h0a3.96,3.96,0,0,1,1.931,5.265h0a3.932,3.932,0,0,1-3.6,2.3h0A4.223,4.223,0,0,1,672.663,73.8Zm-19.313-7.62v.026a3.982,3.982,0,0,1-2.54-5.027h0a3.983,3.983,0,0,1,5-2.54h0a3.979,3.979,0,0,1,2.54,5.027h0a3.96,3.96,0,0,1-3.757,2.725h0A3.321,3.321,0,0,1,653.351,66.183Zm-20.083-5.345a3.98,3.98,0,0,1-3.1-4.683h0a4.02,4.02,0,0,1,4.71-3.1h-.029a3.963,3.963,0,0,1,3.1,4.71h0a3.933,3.933,0,0,1-3.887,3.149h0A4.02,4.02,0,0,1,633.268,60.839Zm-20.532-3.016a3.941,3.941,0,0,1-3.6-4.313h0a3.966,3.966,0,0,1,4.286-3.6h0l.026.026h0a3.929,3.929,0,0,1,3.572,4.286h0a3.97,3.97,0,0,1-3.943,3.625h0A1.507,1.507,0,0,1,612.736,57.822Zm-24.819-4.683a3.964,3.964,0,0,1,3.969-3.969h0a3.982,3.982,0,0,1,3.969,3.969h0a4,4,0,0,1-3.969,3.969h0A3.98,3.98,0,0,1,587.917,53.139Zm-21.247,0a3.964,3.964,0,0,1,3.969-3.969h0a3.964,3.964,0,0,1,3.969,3.969h0a3.98,3.98,0,0,1-3.969,3.969h0A3.981,3.981,0,0,1,566.67,53.139Z" transform="translate(-566.67 -49.17)" fill="#8f9296"/>
        </g>
        <g id="Group_14661" data-name="Group 14661" transform="translate(0 372.954)">
          <path id="Path_52450" data-name="Path 52450" d="M562.633,198a4.02,4.02,0,0,1-2.828-1.164,5.093,5.093,0,0,1-.479-.582,4.59,4.59,0,0,1-.368-.688,3.734,3.734,0,0,1-.318-1.535,3.783,3.783,0,0,1,.079-.767,3.328,3.328,0,0,1,.238-.741,3.587,3.587,0,0,1,.368-.688,5.385,5.385,0,0,1,.479-.609,3.979,3.979,0,0,1,6.8,2.8,4.03,4.03,0,0,1-.077.794,4.243,4.243,0,0,1-.238.741,4.388,4.388,0,0,1-.37.688,5.383,5.383,0,0,1-.476.582A4.014,4.014,0,0,1,562.633,198Z" transform="translate(-558.64 -190.124)" fill="#8f9296"/>
        </g>
      </g>
      <g id="Group_14666" data-name="Group 14666" transform="translate(1433.362 4490.983)">
        <g id="Group_14663" data-name="Group 14663" transform="translate(0 0.053)">
          <path id="Path_52451" data-name="Path 52451" d="M562.633,224.035a4.02,4.02,0,0,1-2.828-1.164,4.129,4.129,0,0,1-1.164-2.8,4.079,4.079,0,0,1,1.164-2.8,3.976,3.976,0,1,1,5.636,5.609A4.014,4.014,0,0,1,562.633,224.035Z" transform="translate(-558.64 -216.15)" fill="#8f9296"/>
        </g>
        <g id="Group_14664" data-name="Group 14664" transform="translate(21.247)">
          <path id="Path_52452" data-name="Path 52452" d="M588.1,592.99a3.981,3.981,0,0,1,3.969-3.969h0a3.979,3.979,0,0,1,3.969,3.969h0a3.962,3.962,0,0,1-3.969,3.969h0A3.964,3.964,0,0,1,588.1,592.99Zm-21.244,0a3.98,3.98,0,0,1,3.969-3.969h0a3.982,3.982,0,0,1,3.969,3.969h0a3.965,3.965,0,0,1-3.969,3.969h0A3.964,3.964,0,0,1,566.855,592.99Zm42.467-.4a3.967,3.967,0,0,1,3.6-4.313h0a4.007,4.007,0,0,1,4.316,3.6h0a4.008,4.008,0,0,1-3.6,4.313h0c-.132,0-.238.026-.37.026h0A3.966,3.966,0,0,1,609.322,592.593Zm21.062-2.675a3.954,3.954,0,0,1,3.069-4.681h0a4.017,4.017,0,0,1,4.707,3.1h0a3.988,3.988,0,0,1-3.1,4.681h0a3.827,3.827,0,0,1-.791.082h0A3.961,3.961,0,0,1,630.384,589.918ZM651,584.893a3.988,3.988,0,0,1,2.514-5.027v.024a3.95,3.95,0,0,1,5.027,2.516h0a3.966,3.966,0,0,1-2.54,5h0v.026h0a3.934,3.934,0,0,1-1.244.185h0A3.938,3.938,0,0,1,651,584.893Zm19.9-7.382a3.965,3.965,0,0,1,1.932-5.265h0a3.966,3.966,0,0,1,5.266,1.932h0a3.958,3.958,0,0,1-1.932,5.265h0a3.73,3.73,0,0,1-1.667.37h0A3.956,3.956,0,0,1,670.893,577.511Zm18.918-9.578a3.959,3.959,0,0,1,1.323-5.451h0a3.953,3.953,0,0,1,5.448,1.323h0a3.962,3.962,0,0,1-1.323,5.451h0a3.857,3.857,0,0,1-2.061.582h0A3.99,3.99,0,0,1,689.812,567.933Zm17.728-11.7a3.937,3.937,0,0,1,.688-5.559h0a3.959,3.959,0,0,1,5.554.691h0a3.989,3.989,0,0,1-.685,5.583h0a3.99,3.99,0,0,1-2.434.82h0A3.909,3.909,0,0,1,707.539,556.238Zm16.273-13.6a3.965,3.965,0,0,1,.053-5.609h0a3.969,3.969,0,0,1,5.609.053h0a3.971,3.971,0,0,1-.053,5.609h0a3.9,3.9,0,0,1-2.778,1.135h0A3.922,3.922,0,0,1,723.812,542.638Zm14.632-15.373a3.988,3.988,0,0,1-.582-5.586h0a3.984,3.984,0,0,1,5.58-.579h0a3.956,3.956,0,0,1,.585,5.583h0a3.923,3.923,0,0,1-3.069,1.455h0A4.033,4.033,0,0,1,738.444,527.265Zm12.806-16.937a3.949,3.949,0,0,1-1.193-5.474h0a3.945,3.945,0,0,1,5.48-1.191h0a3.913,3.913,0,0,1,1.191,5.448h0v.029h0a3.984,3.984,0,0,1-3.334,1.826h0A3.97,3.97,0,0,1,751.25,510.328Zm10.819-18.281a3.924,3.924,0,0,1-1.823-5.292h0a3.946,3.946,0,0,1,5.318-1.826h0a3.953,3.953,0,0,1,1.8,5.316h0a3.947,3.947,0,0,1-3.543,2.223h0A3.708,3.708,0,0,1,762.069,492.048Zm8.655-19.368a3.993,3.993,0,0,1-2.434-5.08h0a3.976,3.976,0,0,1,5.08-2.408h0a3.973,3.973,0,0,1,2.408,5.08h0a3.983,3.983,0,0,1-3.731,2.62h0A3.811,3.811,0,0,1,770.724,472.68Zm6.377-20.268a3.981,3.981,0,0,1-2.993-4.763h0a3.975,3.975,0,0,1,4.765-2.963h0a3.977,3.977,0,0,1,2.99,4.763h0a3.986,3.986,0,0,1-3.89,3.069h0A3.285,3.285,0,0,1,777.1,452.412Zm4-20.823a4,4,0,0,1-3.493-4.395h0A3.935,3.935,0,0,1,782,423.7h0a3.935,3.935,0,0,1,3.493,4.363h0a3.909,3.909,0,0,1-3.916,3.522H781.1Zm-2.328-25.136a3.962,3.962,0,0,1,3.969-3.969h0a3.962,3.962,0,0,1,3.969,3.969h0a3.964,3.964,0,0,1-3.969,3.969h0A3.964,3.964,0,0,1,778.768,406.452Zm-1.164-20.72v-.024a3.955,3.955,0,0,1,3.493-4.392h0a4,4,0,0,1,4.392,3.519h0a3.956,3.956,0,0,1-3.519,4.366h0a2.428,2.428,0,0,1-.45.026h0A3.926,3.926,0,0,1,777.6,385.732Zm-3.519-20.477h0a3.953,3.953,0,0,1,2.963-4.763h0a3.969,3.969,0,0,1,4.76,2.963h0a4,4,0,0,1-2.963,4.789h0a5.344,5.344,0,0,1-.9.077h0A3.954,3.954,0,0,1,774.085,365.255Zm-5.848-19.924a3.973,3.973,0,0,1,2.408-5.08h0a4,4,0,0,1,5.08,2.408h0a3.979,3.979,0,0,1-2.41,5.08h0a3.976,3.976,0,0,1-1.323.238h0A4.008,4.008,0,0,1,768.237,345.331Zm-8.07-19.133h0a3.972,3.972,0,0,1,1.826-5.316h0a3.945,3.945,0,0,1,5.292,1.826h0a3.94,3.94,0,0,1-1.8,5.292h0a3.776,3.776,0,0,1-1.749.421h0A3.96,3.96,0,0,1,760.167,326.2ZM749.98,308.129h-.029a4.013,4.013,0,0,1,1.217-5.5h0a3.962,3.962,0,0,1,5.48,1.217h0a3.973,3.973,0,0,1-1.193,5.477h0a3.928,3.928,0,0,1-2.14.609h0A3.918,3.918,0,0,1,749.98,308.129Zm-12.2-16.828h0a3.937,3.937,0,0,1,.582-5.583h0a3.929,3.929,0,0,1,5.556.582h0a3.96,3.96,0,0,1-.556,5.583h0a4.062,4.062,0,0,1-2.514.9h0A3.9,3.9,0,0,1,737.783,291.3Zm-14.024-15.32a3.969,3.969,0,0,1-.056-5.609h0a3.972,3.972,0,0,1,5.612-.079h0a3.971,3.971,0,0,1,.053,5.609h0a3.853,3.853,0,0,1-2.831,1.217h0A4.017,4.017,0,0,1,723.759,275.981ZM708.1,262.328a3.962,3.962,0,0,1-.691-5.556h0a3.944,3.944,0,0,1,5.559-.714h0a3.966,3.966,0,0,1,.712,5.583h0a3.987,3.987,0,0,1-3.146,1.535h0A4.053,4.053,0,0,1,708.1,262.328ZM691,250.554a3.993,3.993,0,0,1-1.323-5.477h0a3.982,3.982,0,0,1,5.451-1.323h0a3.961,3.961,0,0,1,1.323,5.451h0a3.939,3.939,0,0,1-3.389,1.905h0A4.086,4.086,0,0,1,691,250.554Zm-18.339-9.79a3.955,3.955,0,0,1-1.929-5.265h0A3.966,3.966,0,0,1,676,233.567h0a3.969,3.969,0,0,1,1.931,5.265h0a3.932,3.932,0,0,1-3.6,2.3h0A3.809,3.809,0,0,1,672.663,240.764Zm-19.313-7.594a3.982,3.982,0,0,1-2.54-5.027h0a3.968,3.968,0,0,1,5-2.514h0a3.951,3.951,0,0,1,2.54,5h0a3.96,3.96,0,0,1-3.757,2.725h0A3.931,3.931,0,0,1,653.351,233.17Zm-20.083-5.345a4.02,4.02,0,0,1-3.1-4.71h0a3.982,3.982,0,0,1,4.71-3.069h-.029a3.936,3.936,0,0,1,3.1,4.683h0a3.956,3.956,0,0,1-3.887,3.175h0A4.019,4.019,0,0,1,633.268,227.825Zm-20.532-3.043v.026a3.971,3.971,0,0,1-3.6-4.313h0a3.93,3.93,0,0,1,4.286-3.6h.026a3.929,3.929,0,0,1,3.572,4.286h0a3.97,3.97,0,0,1-3.943,3.625h0A1.506,1.506,0,0,1,612.736,224.782ZM587.917,220.1a3.964,3.964,0,0,1,3.969-3.969h0a3.982,3.982,0,0,1,3.969,3.969h0a3.982,3.982,0,0,1-3.969,3.969h0A3.964,3.964,0,0,1,587.917,220.1Zm-21.247,0a3.964,3.964,0,0,1,3.969-3.969h0a3.964,3.964,0,0,1,3.969,3.969h0a3.964,3.964,0,0,1-3.969,3.969h0A3.964,3.964,0,0,1,566.67,220.1Z" transform="translate(-566.67 -216.13)" fill="#8f9296"/>
        </g>
        <g id="Group_14665" data-name="Group 14665" transform="translate(0 372.954)">
          <path id="Path_52453" data-name="Path 52453" d="M562.633,364.983a3.9,3.9,0,0,1-3.675-2.458,3.768,3.768,0,0,1-.318-1.511,3.981,3.981,0,1,1,7.962,0,3.811,3.811,0,0,1-.315,1.511,4.127,4.127,0,0,1-.847,1.3A4.059,4.059,0,0,1,562.633,364.983Z" transform="translate(-558.64 -357.084)" fill="#8f9296"/>
        </g>
      </g>
      <g id="Group_14671" data-name="Group 14671" transform="translate(199.723 4271.715)">
        <g id="Group_14668" data-name="Group 14668" transform="translate(233.318 0.063)">
          <path id="Path_52454" data-name="Path 52454" d="M184.549,141.159a4.1,4.1,0,0,1-2.8-1.138,3.992,3.992,0,0,1,0-5.636,4.122,4.122,0,0,1,5.609,0,5.585,5.585,0,0,1,.5.609,5.68,5.68,0,0,1,.37.688c.079.238.159.5.212.741a3.98,3.98,0,0,1,.079.767,4.038,4.038,0,0,1-.079.794c-.053.238-.132.5-.212.741a5.682,5.682,0,0,1-.37.688,5.588,5.588,0,0,1-.5.609A4.054,4.054,0,0,1,184.549,141.159Z" transform="translate(-180.58 -133.284)" fill="#8f9296"/>
        </g>
        <g id="Group_14669" data-name="Group 14669">
          <path id="Path_52455" data-name="Path 52455" d="M304.286,510.147a3.981,3.981,0,0,1,3.969-3.969h0a3.964,3.964,0,0,1,3.969,3.969h0a3.964,3.964,0,0,1-3.969,3.969h0A3.981,3.981,0,0,1,304.286,510.147Zm-21.22,0a3.964,3.964,0,0,1,3.969-3.969h0A3.964,3.964,0,0,1,291,510.147h0a3.964,3.964,0,0,1-3.969,3.969h0A3.964,3.964,0,0,1,283.066,510.147Zm-17.6,3.172v.029a3.989,3.989,0,0,1-3.6-4.313h0a3.941,3.941,0,0,1,4.313-3.6h0a3.977,3.977,0,0,1,3.6,4.313h0a3.993,3.993,0,0,1-3.969,3.6h0A1.372,1.372,0,0,1,265.47,513.319Zm-21.432-3.146a4.02,4.02,0,0,1-3.1-4.71h0a3.969,3.969,0,0,1,4.71-3.069h0a3.954,3.954,0,0,1,3.069,4.683h0a3.982,3.982,0,0,1-3.89,3.175h0A4.248,4.248,0,0,1,244.038,510.173Zm-20.929-5.609h0a3.983,3.983,0,0,1-2.54-5.027h0a3.987,3.987,0,0,1,5.027-2.514h0a3.989,3.989,0,0,1,2.514,5.027h0a3.938,3.938,0,0,1-3.757,2.7h0A3.935,3.935,0,0,1,223.109,504.564ZM202.947,496.6a3.978,3.978,0,0,1-1.958-5.265h0a3.991,3.991,0,0,1,5.292-1.934h0a3.97,3.97,0,0,1,1.932,5.268h0a3.992,3.992,0,0,1-3.6,2.3h0A4.029,4.029,0,0,1,202.947,496.6Zm-19.13-10.213a3.982,3.982,0,0,1-1.323-5.451h0a3.993,3.993,0,0,1,5.477-1.323h0a3.988,3.988,0,0,1,1.323,5.451h0a3.974,3.974,0,0,1-3.413,1.905h0A4.008,4.008,0,0,1,183.817,486.386ZM166.01,474.08a3.937,3.937,0,0,1-.714-5.554h0a3.969,3.969,0,0,1,5.583-.714h0a3.988,3.988,0,0,1,.688,5.583h0a3.945,3.945,0,0,1-3.122,1.535h0A3.988,3.988,0,0,1,166.01,474.08Zm-16.325-14.232a4,4,0,0,1-.053-5.636h0a3.968,3.968,0,0,1,5.609-.053h0a3.969,3.969,0,0,1,.053,5.609h0a3.922,3.922,0,0,1-2.831,1.188h0A3.987,3.987,0,0,1,149.684,459.847ZM135.079,443.84h0a3.955,3.955,0,0,1,.556-5.583h0a3.977,3.977,0,0,1,5.583.556h0a3.953,3.953,0,0,1-.556,5.583h0a3.961,3.961,0,0,1-2.514.9h0A3.924,3.924,0,0,1,135.079,443.84Zm-12.727-17.569a3.982,3.982,0,0,1,1.217-5.477h0a3.959,3.959,0,0,1,5.477,1.217h0a3.975,3.975,0,0,1-1.191,5.477h0a3.937,3.937,0,0,1-2.143.609h0A3.962,3.962,0,0,1,122.352,426.271Zm-10.637-18.892a3.97,3.97,0,0,1,1.826-5.292h0a3.967,3.967,0,0,1,5.318,1.8h0a3.969,3.969,0,0,1-1.826,5.318h0a4.1,4.1,0,0,1-1.746.4h0A4,4,0,0,1,111.715,407.379ZM103.328,387.4a3.94,3.94,0,0,1,2.408-5.054h0a3.95,3.95,0,0,1,5.054,2.408h0a3.94,3.94,0,0,1-2.408,5.054h0a4,4,0,0,1-1.323.238h0A3.951,3.951,0,0,1,103.328,387.4Zm-6.086-20.823a3.963,3.963,0,0,1,2.99-4.736h0a3.926,3.926,0,0,1,4.736,2.963h0A3.953,3.953,0,0,1,102,369.568h0a5.214,5.214,0,0,1-.9.106h0A3.975,3.975,0,0,1,97.242,366.578Zm-3.651-21.353h0a3.98,3.98,0,0,1,3.519-4.392h0a3.956,3.956,0,0,1,4.366,3.519h0a3.936,3.936,0,0,1-3.493,4.366h0a2.564,2.564,0,0,1-.45.026h0A3.973,3.973,0,0,1,93.591,345.226ZM92.4,323.608a3.947,3.947,0,0,1,3.969-3.969h0a3.964,3.964,0,0,1,3.969,3.969h0a3.964,3.964,0,0,1-3.969,3.969h0A3.981,3.981,0,0,1,92.4,323.608Zm7.938,0ZM97.11,306.357a3.964,3.964,0,0,1-3.493-4.392h0a3.994,3.994,0,0,1,4.392-3.493h0a3.96,3.96,0,0,1,3.493,4.392h0a3.928,3.928,0,0,1-3.916,3.519h0A2.872,2.872,0,0,1,97.11,306.357Zm3.149-20.982a3.953,3.953,0,0,1-2.963-4.763h0a3.94,3.94,0,0,1,4.763-2.963h0a3.96,3.96,0,0,1,2.963,4.763h0a3.979,3.979,0,0,1-3.863,3.069h0A3.622,3.622,0,0,1,100.258,285.375Zm5.53-20.48a3.979,3.979,0,0,1-2.408-5.08h0a3.95,3.95,0,0,1,5.054-2.408h0a3.95,3.95,0,0,1,2.408,5.054h0v.026h0a3.952,3.952,0,0,1-3.731,2.619h0A4.464,4.464,0,0,1,105.788,264.9Zm7.832-19.739a3.992,3.992,0,0,1-1.826-5.318h0a3.974,3.974,0,0,1,5.318-1.8h0a3.992,3.992,0,0,1,1.826,5.318h0a3.97,3.97,0,0,1-3.572,2.2h0A4.1,4.1,0,0,1,113.62,245.156Zm10.028-18.707a3.942,3.942,0,0,1-1.191-5.477h0a3.942,3.942,0,0,1,5.477-1.191h0a3.97,3.97,0,0,1,1.191,5.477h0a3.951,3.951,0,0,1-3.334,1.826h0A3.754,3.754,0,0,1,123.648,226.45Zm12.092-17.437a3.982,3.982,0,0,1-.582-5.583h0a3.957,3.957,0,0,1,5.583-.556h0a3.982,3.982,0,0,1,.582,5.583h0a4.016,4.016,0,0,1-3.1,1.455h0A3.84,3.84,0,0,1,135.74,209.013Zm13.971-15.955a3.969,3.969,0,0,1,.079-5.609h0a3.969,3.969,0,0,1,5.609.053h0a3.977,3.977,0,0,1-.079,5.636h0a3.974,3.974,0,0,1-2.752,1.111h0A4.028,4.028,0,0,1,149.711,193.058Zm15.717-14.288a3.96,3.96,0,0,1,.688-5.556h0a3.988,3.988,0,0,1,5.583.688h0a3.992,3.992,0,0,1-.714,5.583h0a3.973,3.973,0,0,1-2.434.82h0A3.908,3.908,0,0,1,165.428,178.77Zm17.2-12.409a3.966,3.966,0,0,1,1.349-5.451h0a3.964,3.964,0,0,1,5.451,1.323h0a3.982,3.982,0,0,1-1.323,5.451h0a3.94,3.94,0,0,1-2.064.582h0A4.034,4.034,0,0,1,182.626,166.361Zm18.522-10.372a3.983,3.983,0,0,1,1.958-5.265h0a3.966,3.966,0,0,1,5.265,1.932h0a3.955,3.955,0,0,1-1.958,5.265h0a4,4,0,0,1-1.641.37h0A4.043,4.043,0,0,1,201.148,155.989Zm19.606-8.2a3.967,3.967,0,0,1,2.514-5.027h0a3.943,3.943,0,0,1,5,2.54h0a3.939,3.939,0,0,1-2.514,5h0a4.091,4.091,0,0,1-1.244.212h0A3.938,3.938,0,0,1,220.754,147.786Zm20.374-5.9a4.007,4.007,0,0,1,3.1-4.71h0a3.98,3.98,0,0,1,4.683,3.1h0a3.955,3.955,0,0,1-3.069,4.683h0a4.522,4.522,0,0,1-.82.079h0A4.008,4.008,0,0,1,241.128,141.886Zm20.929-3.546a3.992,3.992,0,0,1,3.6-4.313h0a3.977,3.977,0,0,1,4.313,3.6h0a3.977,3.977,0,0,1-3.6,4.313h0c-.132,0-.238.026-.37.026h0A3.987,3.987,0,0,1,262.057,138.34Zm42.441-1.111a3.981,3.981,0,0,1,3.969-3.969h0a4,4,0,0,1,3.969,3.969h0a3.981,3.981,0,0,1-3.969,3.969h0A3.964,3.964,0,0,1,304.5,137.229Zm-21.247,0a3.981,3.981,0,0,1,3.969-3.969h0a3.981,3.981,0,0,1,3.969,3.969h0a3.964,3.964,0,0,1-3.969,3.969h0A3.964,3.964,0,0,1,283.251,137.229Z" transform="translate(-92.4 -133.26)" fill="#8f9296"/>
        </g>
        <g id="Group_14670" data-name="Group 14670" transform="translate(233.318 372.928)">
          <path id="Path_52456" data-name="Path 52456" d="M184.549,282.131a4.134,4.134,0,0,1-1.508-.291,4.353,4.353,0,0,1-1.3-.873,4,4,0,0,1-.873-1.3,4.144,4.144,0,0,1-.291-1.508,4.012,4.012,0,0,1,1.164-2.8,5.283,5.283,0,0,1,.609-.5,3.351,3.351,0,0,1,.688-.347,3.785,3.785,0,0,1,.741-.238,4.018,4.018,0,0,1,3.572,1.087,5.585,5.585,0,0,1,.5.609,5.683,5.683,0,0,1,.37.688,3.415,3.415,0,0,1,.212.741,3.592,3.592,0,0,1,.079.767,4.145,4.145,0,0,1-.291,1.508,4,4,0,0,1-.873,1.3A3.858,3.858,0,0,1,184.549,282.131Z" transform="translate(-180.58 -274.204)" fill="#8f9296"/>
        </g>
      </g>
      <g id="Group_14675" data-name="Group 14675" transform="translate(199.723 4713.504)">
        <g id="Group_14672" data-name="Group 14672" transform="translate(233.318 0.004)">
          <path id="Path_52457" data-name="Path 52457" d="M184.549,308.164a4.02,4.02,0,0,1-2.8-1.162,3.845,3.845,0,0,1-.847-1.3,3.675,3.675,0,0,1-.318-1.511,4.033,4.033,0,0,1,.079-.791,4.108,4.108,0,0,1,.238-.744,4.152,4.152,0,0,1,.344-.685,5.28,5.28,0,0,1,.5-.582,4,4,0,0,1,3.6-1.085,2.6,2.6,0,0,1,.741.212,5.672,5.672,0,0,1,.661.368,2.893,2.893,0,0,1,.609.505,5.283,5.283,0,0,1,.5.582c.132.235.265.45.37.685a3.984,3.984,0,0,1,.212.744,4.033,4.033,0,0,1,.079.791,4.137,4.137,0,0,1-.291,1.511,4.371,4.371,0,0,1-.873,1.3A3.974,3.974,0,0,1,184.549,308.164Z" transform="translate(-180.58 -300.23)" fill="#8f9296"/>
        </g>
        <g id="Group_14673" data-name="Group 14673">
          <path id="Path_52458" data-name="Path 52458" d="M304.286,677.092a4,4,0,0,1,3.969-3.969h0a3.981,3.981,0,0,1,3.969,3.969h0a3.964,3.964,0,0,1-3.969,3.969h0A3.981,3.981,0,0,1,304.286,677.092Zm-21.22,0a3.981,3.981,0,0,1,3.969-3.969h0A3.981,3.981,0,0,1,291,677.092h0a3.964,3.964,0,0,1-3.969,3.969h0A3.964,3.964,0,0,1,283.066,677.092Zm-17.6,3.2h0a3.971,3.971,0,0,1-3.6-4.313h0a3.959,3.959,0,0,1,4.313-3.6h0a4.008,4.008,0,0,1,3.6,4.313h0a3.97,3.97,0,0,1-3.969,3.6h-.344Zm-21.432-3.175a4,4,0,0,1-3.1-4.686h0a3.971,3.971,0,0,1,4.71-3.1h0a3.958,3.958,0,0,1,3.069,4.686h0a3.983,3.983,0,0,1-3.89,3.175h0A4.043,4.043,0,0,1,244.038,677.118Zm-20.929-5.609h0a3.964,3.964,0,0,1-2.54-5h0a3.982,3.982,0,0,1,5.027-2.54h0A3.989,3.989,0,0,1,228.11,669h0a4,4,0,0,1-3.784,2.725h0A3.926,3.926,0,0,1,223.109,671.509Zm-20.162-7.964a3.977,3.977,0,0,1-1.958-5.265h0a3.991,3.991,0,0,1,5.292-1.934h0a3.97,3.97,0,0,1,1.932,5.268h0a4,4,0,0,1-3.625,2.3h0A3.621,3.621,0,0,1,202.947,663.545Zm-19.1-10.187h-.026a4.013,4.013,0,0,1-1.323-5.477h0a4.019,4.019,0,0,1,5.477-1.323h0v.026h0a3.981,3.981,0,0,1,1.323,5.451h0a4.04,4.04,0,0,1-3.413,1.905h0A4.106,4.106,0,0,1,183.843,653.358Zm-17.834-12.33a3.937,3.937,0,0,1-.714-5.557h0a3.988,3.988,0,0,1,5.583-.688h0a3.957,3.957,0,0,1,.688,5.556h0a3.953,3.953,0,0,1-3.122,1.535h0A3.843,3.843,0,0,1,166.01,641.028ZM149.684,626.79a3.942,3.942,0,0,1-.053-5.607h0a3.945,3.945,0,0,1,5.609-.079h0a4,4,0,0,1,.053,5.636h0a3.924,3.924,0,0,1-2.831,1.191h0A4.008,4.008,0,0,1,149.684,626.79Zm-14.606-16.005a3.955,3.955,0,0,1,.556-5.583h0a3.977,3.977,0,0,1,5.583.556h0a3.983,3.983,0,0,1-.556,5.607h0a4.071,4.071,0,0,1-2.514.873h0A3.922,3.922,0,0,1,135.079,610.785Zm-12.727-17.569v.026a4.008,4.008,0,0,1,1.217-5.5h0a3.975,3.975,0,0,1,5.477,1.217h0a3.975,3.975,0,0,1-1.191,5.477h0a4,4,0,0,1-2.143.606h0A3.96,3.96,0,0,1,122.352,593.216Zm-10.61-18.865a3.963,3.963,0,0,1,1.8-5.321h0a3.966,3.966,0,0,1,5.318,1.828h0a3.948,3.948,0,0,1-1.826,5.292h0a3.777,3.777,0,0,1-1.746.423h0A3.961,3.961,0,0,1,111.742,574.35Zm-8.414-20a3.944,3.944,0,0,1,2.408-5.056h0a3.943,3.943,0,0,1,5.054,2.41h0a3.94,3.94,0,0,1-2.408,5.054h0a4,4,0,0,1-1.323.238h0A3.916,3.916,0,0,1,103.328,554.347Zm-6.086-20.8a3.961,3.961,0,0,1,2.99-4.765h0a3.95,3.95,0,0,1,4.736,2.963h0A3.954,3.954,0,0,1,102,536.513h0a3.482,3.482,0,0,1-.9.1h0A3.977,3.977,0,0,1,97.242,533.55Zm-3.651-21.379a4,4,0,0,1,3.519-4.392h0A4,4,0,0,1,101.5,511.3h0a4.016,4.016,0,0,1-3.519,4.392H97.56A3.979,3.979,0,0,1,93.591,512.171ZM92.4,490.553a3.964,3.964,0,0,1,3.969-3.969h0a3.964,3.964,0,0,1,3.969,3.969h0a3.964,3.964,0,0,1-3.969,3.969h0A3.964,3.964,0,0,1,92.4,490.553ZM97.11,473.3a3.965,3.965,0,0,1-3.493-4.395h0a3.992,3.992,0,0,1,4.392-3.49h0a3.974,3.974,0,0,1,3.493,4.39h0a3.926,3.926,0,0,1-3.916,3.519h0A3.2,3.2,0,0,1,97.11,473.3Zm3.149-20.982a3.953,3.953,0,0,1-2.963-4.763h0a3.953,3.953,0,0,1,4.763-2.963h0a3.972,3.972,0,0,1,2.963,4.763h0a3.979,3.979,0,0,1-3.863,3.069h0A3.623,3.623,0,0,1,100.258,452.32Zm5.53-20.479a3.979,3.979,0,0,1-2.408-5.08h0a3.948,3.948,0,0,1,5.054-2.408h0a4.015,4.015,0,0,1,2.434,5.08h0a4.01,4.01,0,0,1-3.757,2.646h0A3.773,3.773,0,0,1,105.788,431.84ZM113.62,412.1a3.993,3.993,0,0,1-1.826-5.318h0a3.978,3.978,0,0,1,5.318-1.8h0a3.973,3.973,0,0,1,1.826,5.321h0a4,4,0,0,1-3.572,2.223h0A3.777,3.777,0,0,1,113.62,412.1Zm10.028-18.68a3.978,3.978,0,0,1-1.191-5.5h0a3.965,3.965,0,0,1,5.477-1.191h0a3.952,3.952,0,0,1,1.191,5.477h0a3.951,3.951,0,0,1-3.334,1.826h0A3.96,3.96,0,0,1,123.648,393.421Zm12.092-17.439a3.981,3.981,0,0,1-.582-5.58h0a3.961,3.961,0,0,1,5.583-.582h0a3.958,3.958,0,0,1,.582,5.583h0a3.932,3.932,0,0,1-3.1,1.455h0A4,4,0,0,1,135.74,375.982ZM149.711,360a3.966,3.966,0,0,1,.079-5.607h0a3.948,3.948,0,0,1,5.609.077h0a3.948,3.948,0,0,1-.079,5.612h0a3.974,3.974,0,0,1-2.752,1.111h0A4.02,4.02,0,0,1,149.711,360Zm15.717-14.259a3.992,3.992,0,0,1,.688-5.586h0a3.991,3.991,0,0,1,5.583.691h0a3.992,3.992,0,0,1-.714,5.583h0a3.99,3.99,0,0,1-2.434.82h0A3.919,3.919,0,0,1,165.428,345.742Zm17.2-12.438a3.964,3.964,0,0,1,1.349-5.448h0a3.964,3.964,0,0,1,5.451,1.323h0a3.978,3.978,0,0,1-1.323,5.448h0v.029h0a4.242,4.242,0,0,1-2.064.556h0A3.971,3.971,0,0,1,182.626,333.3Zm18.522-10.369a3.973,3.973,0,0,1,1.958-5.268h0a3.97,3.97,0,0,1,5.265,1.934h0a3.977,3.977,0,0,1-1.958,5.265h0a4,4,0,0,1-1.641.37h0A4,4,0,0,1,201.148,322.934Zm19.606-8.2a3.931,3.931,0,0,1,2.514-5h0a3.93,3.93,0,0,1,5,2.516h0a3.979,3.979,0,0,1-2.514,5.027h0a4.052,4.052,0,0,1-1.244.185h0A3.938,3.938,0,0,1,220.754,314.731Zm20.374-5.9a3.978,3.978,0,0,1,3.1-4.681h0a3.942,3.942,0,0,1,4.683,3.069h0a3.944,3.944,0,0,1-3.069,4.683h0v.024h0a4.3,4.3,0,0,1-.82.082h0A3.982,3.982,0,0,1,241.128,308.828Zm20.929-3.543a4.007,4.007,0,0,1,3.6-4.313h0a3.979,3.979,0,0,1,4.313,3.625h0a3.949,3.949,0,0,1-3.6,4.286h0a1.507,1.507,0,0,1-.344.026h0A3.993,3.993,0,0,1,262.057,305.285ZM304.5,304.2a3.964,3.964,0,0,1,3.969-3.969h0a3.981,3.981,0,0,1,3.969,3.969h0a3.979,3.979,0,0,1-3.969,3.969h0A3.962,3.962,0,0,1,304.5,304.2Zm-21.247,0a3.964,3.964,0,0,1,3.969-3.969h0a3.964,3.964,0,0,1,3.969,3.969h0a3.962,3.962,0,0,1-3.969,3.969h0A3.962,3.962,0,0,1,283.251,304.2Z" transform="translate(-92.4 -300.229)" fill="#8f9296"/>
        </g>
        <g id="Group_14674" data-name="Group 14674" transform="translate(233.318 372.908)">
          <path id="Path_52459" data-name="Path 52459" d="M184.549,449.089a3.9,3.9,0,0,1-2.8-1.164,3.69,3.69,0,0,1-.847-1.27,3.8,3.8,0,0,1-.318-1.535,3.958,3.958,0,0,1,.079-.767,3.463,3.463,0,0,1,.238-.741,2.484,2.484,0,0,1,.37-.688,3.441,3.441,0,0,1,.476-.609,4.16,4.16,0,0,1,3.6-1.085,4.01,4.01,0,0,1,.741.238,3.024,3.024,0,0,1,.661.37,2.692,2.692,0,0,1,.609.476,5.579,5.579,0,0,1,.5.609,5.685,5.685,0,0,1,.37.688,6.06,6.06,0,0,1,.212.741,3.958,3.958,0,0,1,.079.767,4.286,4.286,0,0,1-.291,1.535,4.187,4.187,0,0,1-.873,1.27,3.768,3.768,0,0,1-2.8,1.164Z" transform="translate(-180.58 -441.165)" fill="#8f9296"/>
        </g>
      </g>
      <path id="Path_52465" data-name="Path 52465" d="M196.118,47.635V73.4l19.728-12.881Z" transform="translate(278.036 3997.521)" fill="#579ba9"/>
      <path id="Path_52466" data-name="Path 52466" d="M209.193,47.635V73.4l19.728-12.881Z" transform="translate(299.557 3997.521)" fill="#579ba9"/>
      <path id="Path_52467" data-name="Path 52467" d="M222.269,47.635V73.4L242,60.517Z" transform="translate(321.078 3997.521)" fill="#579ba9"/>
      <path id="Path_52468" data-name="Path 52468" d="M235.344,47.635V73.4l19.728-12.881Z" transform="translate(342.599 3997.521)" fill="#579ba9"/>
      <path id="Path_52469" data-name="Path 52469" d="M555.663,211.793V186.03L535.933,198.91Z" transform="translate(837.348 4225.311)" fill="#6eced6"/>
      <path id="Path_52470" data-name="Path 52470" d="M542.586,211.793V186.03L522.857,198.91Z" transform="translate(815.826 4225.311)" fill="#6eced6"/>
      <path id="Path_52471" data-name="Path 52471" d="M529.51,211.793V186.03L509.782,198.91Z" transform="translate(794.306 4225.311)" fill="#6eced6"/>
      <path id="Path_52472" data-name="Path 52472" d="M516.435,211.793V186.03L496.707,198.91Z" transform="translate(772.785 4225.311)" fill="#6eced6"/>
      <path id="Path_52473" data-name="Path 52473" d="M555.663,377.842V352.08l-19.731,12.881Z" transform="translate(837.348 4498.617)" fill="#e58b2d"/>
      <path id="Path_52474" data-name="Path 52474" d="M542.586,377.842V352.08l-19.728,12.881Z" transform="translate(815.826 4498.617)" fill="#e58b2d"/>
      <path id="Path_52475" data-name="Path 52475" d="M529.51,377.842V352.08l-19.728,12.881Z" transform="translate(794.306 4498.617)" fill="#e58b2d"/>
      <path id="Path_52476" data-name="Path 52476" d="M516.435,377.842V352.08l-19.728,12.881Z" transform="translate(772.785 4498.617)" fill="#e58b2d"/>
      <path id="Path_52481" data-name="Path 52481" d="M196.118,436.21v25.761l19.728-12.881Z" transform="translate(278.036 4637.089)" fill="#16263f"/>
      <path id="Path_52482" data-name="Path 52482" d="M209.193,436.21v25.761l19.728-12.881Z" transform="translate(299.557 4637.089)" fill="#16263f"/>
      <path id="Path_52483" data-name="Path 52483" d="M222.269,436.21v25.761L242,449.091Z" transform="translate(321.078 4637.089)" fill="#16263f"/>
      <path id="Path_52484" data-name="Path 52484" d="M235.344,436.21v25.761l19.728-12.881Z" transform="translate(342.599 4637.089)" fill="#16263f"/>
      <g id="Group_14743" data-name="Group 14743">
        <path id="Path_52461" data-name="Path 52461" d="M153.313,80.169H1320.889a112.221,112.221,0,0,1,0,224.441H234.837a107.1,107.1,0,1,0,0,214.207H1320.889a112.219,112.219,0,0,1,0,224.439H234.837a107.1,107.1,0,0,0,0,214.209h1167.57" transform="translate(165.478 4051.07)" fill="none" stroke="#000" stroke-miterlimit="10" stroke-width="13"/>
        <g id="Group_14742" data-name="Group 14742">
          <g id="Group_14741" data-name="Group 14741">
            <g transform="matrix(1, 0, 0, 1, 199.72, 4041.29)" filter="url(#Ellipse_1076)">
              <circle id="Ellipse_1076-2" data-name="Ellipse 1076" cx="37.271" cy="37.271" r="37.271" transform="translate(70.28 45.82)" fill="#afd448"/>
            </g>
            <g transform="matrix(1, 0, 0, 1, 199.72, 4041.29)" filter="url(#Path_52488)">
              <path id="Path_52488-2" data-name="Path 52488" d="M345.682,74.417a28.9,28.9,0,1,1-28.9-28.9A28.9,28.9,0,0,1,345.682,74.417Z" transform="translate(-209.61 8.68)" fill="#f9f9f9" fill-rule="evenodd"/>
            </g>
            <text id="_1" data-name="1" transform="translate(302 4134.514)" fill="#302b2c" font-size="28" font-family="Quicksand-Bold, Quicksand" font-weight="700"><tspan x="0" y="0">1</tspan></text>
          </g>
          <g id="Group_14727" data-name="Group 14727" transform="translate(0 -281)">
            <g transform="matrix(1, 0, 0, 1, 199.72, 4322.29)" filter="url(#Path_52932)">
              <path id="Path_52932-10" data-name="Path 52932" d="M37.271,0A37.271,37.271,0,1,1,0,37.271,37.271,37.271,0,0,1,37.271,0Z" transform="translate(1041.51 45.82)" fill="#78c89c"/>
            </g>
            <g transform="matrix(1, 0, 0, 1, 199.72, 4322.29)" filter="url(#Path_52931)">
              <path id="Path_52931-10" data-name="Path 52931" d="M345.682,74.417a28.9,28.9,0,1,1-28.9-28.9A28.9,28.9,0,0,1,345.682,74.417Z" transform="translate(761.99 8.68)" fill="#f9f9f9" fill-rule="evenodd"/>
            </g>
            <text id="_2" data-name="2" transform="translate(1273.35 4415.514)" fill="#302b2c" font-size="28" font-family="Quicksand-Bold, Quicksand" font-weight="700"><tspan x="0" y="0">2</tspan></text>
          </g>
          <g id="Group_14728" data-name="Group 14728" transform="translate(-706.104 -55.208)">
            <g transform="matrix(1, 0, 0, 1, 905.83, 4096.49)" filter="url(#Path_52932-2)">
              <path id="Path_52932-11" data-name="Path 52932" d="M37.271,0A37.271,37.271,0,1,1,0,37.271,37.271,37.271,0,0,1,37.271,0Z" transform="translate(335.4 271.61)" fill="#7dd3e7"/>
            </g>
            <g transform="matrix(1, 0, 0, 1, 905.83, 4096.49)" filter="url(#Path_52931-2)">
              <path id="Path_52931-11" data-name="Path 52931" d="M345.682,74.417a28.9,28.9,0,1,1-28.9-28.9A28.9,28.9,0,0,1,345.682,74.417Z" transform="translate(55.89 234.47)" fill="#f9f9f9" fill-rule="evenodd"/>
            </g>
            <text id="_1-2" data-name="1" transform="translate(1273.35 4415.514)" fill="#302b2c" font-size="28" font-family="Quicksand-Bold, Quicksand" font-weight="700"><tspan x="0" y="0">1</tspan></text>
          </g>
          <g id="Group_14730" data-name="Group 14730" transform="translate(-500.297 161.509)">
            <g transform="matrix(1, 0, 0, 1, 700.02, 3879.78)" filter="url(#Path_52932-3)">
              <path id="Path_52932-12" data-name="Path 52932" d="M37.271,0A37.271,37.271,0,1,1,0,37.271,37.271,37.271,0,0,1,37.271,0Z" transform="translate(541.21 488.33)" fill="#67a3e5"/>
            </g>
            <g transform="matrix(1, 0, 0, 1, 700.02, 3879.78)" filter="url(#Path_52931-3)">
              <path id="Path_52931-12" data-name="Path 52931" d="M345.682,74.417a28.9,28.9,0,1,1-28.9-28.9A28.9,28.9,0,0,1,345.682,74.417Z" transform="translate(261.7 451.18)" fill="#f9f9f9" fill-rule="evenodd"/>
            </g>
            <text id="_1-3" data-name="1" transform="translate(1273.35 4415.514)" fill="#302b2c" font-size="28" font-family="Quicksand-Bold, Quicksand" font-weight="700"><tspan x="0" y="0">1</tspan></text>
          </g>
          <g id="Group_14732" data-name="Group 14732" transform="translate(-700.558 386.385)">
            <g transform="matrix(1, 0, 0, 1, 900.28, 3654.9)" filter="url(#Path_52932-4)">
              <path id="Path_52932-13" data-name="Path 52932" d="M37.271,0A37.271,37.271,0,1,1,0,37.271,37.271,37.271,0,0,1,37.271,0Z" transform="translate(340.95 713.21)" fill="#3a5d8a"/>
            </g>
            <g transform="matrix(1, 0, 0, 1, 900.28, 3654.9)" filter="url(#Path_52931-4)">
              <path id="Path_52931-13" data-name="Path 52931" d="M345.682,74.417a28.9,28.9,0,1,1-28.9-28.9A28.9,28.9,0,0,1,345.682,74.417Z" transform="translate(61.44 676.06)" fill="#f9f9f9" fill-rule="evenodd"/>
            </g>
            <text id="_1-4" data-name="1" transform="translate(1273.35 4415.514)" fill="#302b2c" font-size="28" font-family="Quicksand-Bold, Quicksand" font-weight="700"><tspan x="0" y="0">1</tspan></text>
          </g>
          <g id="Group_14734" data-name="Group 14734" transform="translate(-480.958 603.157)">
            <g transform="matrix(1, 0, 0, 1, 680.68, 3438.13)" filter="url(#Path_52932-5)">
              <path id="Path_52932-14" data-name="Path 52932" d="M37.271,0A37.271,37.271,0,1,1,0,37.271,37.271,37.271,0,0,1,37.271,0Z" transform="translate(560.55 929.98)" fill="#91499b"/>
            </g>
            <g transform="matrix(1, 0, 0, 1, 680.68, 3438.13)" filter="url(#Path_52931-5)">
              <path id="Path_52931-14" data-name="Path 52931" d="M345.682,74.417a28.9,28.9,0,1,1-28.9-28.9A28.9,28.9,0,0,1,345.682,74.417Z" transform="translate(281.04 892.83)" fill="#f9f9f9" fill-rule="evenodd"/>
            </g>
            <text id="_1-5" data-name="1" transform="translate(1273.35 4415.514)" fill="#302b2c" font-size="28" font-family="Quicksand-Bold, Quicksand" font-weight="700"><tspan x="0" y="0">1</tspan></text>
          </g>
          <g id="Group_14735" data-name="Group 14735" transform="translate(292.292 603.157)">
            <g transform="matrix(1, 0, 0, 1, -92.57, 3438.13)" filter="url(#Path_52932-6)">
              <path id="Path_52932-15" data-name="Path 52932" d="M37.271,0A37.271,37.271,0,1,1,0,37.271,37.271,37.271,0,0,1,37.271,0Z" transform="translate(1333.8 929.98)" fill="#b54e78"/>
            </g>
            <g transform="matrix(1, 0, 0, 1, -92.57, 3438.13)" filter="url(#Path_52931-6)">
              <path id="Path_52931-15" data-name="Path 52931" d="M345.682,74.417a28.9,28.9,0,1,1-28.9-28.9A28.9,28.9,0,0,1,345.682,74.417Z" transform="translate(1054.29 892.83)" fill="#f9f9f9" fill-rule="evenodd"/>
            </g>
            <text id="_1-6" data-name="1" transform="translate(1273.35 4415.514)" fill="#302b2c" font-size="28" font-family="Quicksand-Bold, Quicksand" font-weight="700"><tspan x="0" y="0">1</tspan></text>
          </g>
          <g id="Group_14733" data-name="Group 14733" transform="translate(-225.485 386.385)">
            <g transform="matrix(1, 0, 0, 1, 425.21, 3654.9)" filter="url(#Path_52932-7)">
              <path id="Path_52932-16" data-name="Path 52932" d="M37.271,0A37.271,37.271,0,1,1,0,37.271,37.271,37.271,0,0,1,37.271,0Z" transform="translate(816.02 713.21)" fill="#5a499d"/>
            </g>
            <g transform="matrix(1, 0, 0, 1, 425.21, 3654.9)" filter="url(#Path_52931-7)">
              <path id="Path_52931-16" data-name="Path 52931" d="M345.682,74.417a28.9,28.9,0,1,1-28.9-28.9A28.9,28.9,0,0,1,345.682,74.417Z" transform="translate(536.51 676.06)" fill="#f9f9f9" fill-rule="evenodd"/>
            </g>
            <text id="_1-7" data-name="1" transform="translate(1273.35 4415.514)" fill="#302b2c" font-size="28" font-family="Quicksand-Bold, Quicksand" font-weight="700"><tspan x="0" y="0">1</tspan></text>
          </g>
          <g id="Group_14731" data-name="Group 14731" transform="translate(-26.551 161.509)">
            <g transform="matrix(1, 0, 0, 1, 226.27, 3879.78)" filter="url(#Path_52932-8)">
              <path id="Path_52932-17" data-name="Path 52932" d="M37.271,0A37.271,37.271,0,1,1,0,37.271,37.271,37.271,0,0,1,37.271,0Z" transform="translate(1014.96 488.33)" fill="#4777bf"/>
            </g>
            <g transform="matrix(1, 0, 0, 1, 226.27, 3879.78)" filter="url(#Path_52931-8)">
              <path id="Path_52931-17" data-name="Path 52931" d="M345.682,74.417a28.9,28.9,0,1,1-28.9-28.9A28.9,28.9,0,0,1,345.682,74.417Z" transform="translate(735.44 451.18)" fill="#f9f9f9" fill-rule="evenodd"/>
            </g>
            <text id="_1-8" data-name="1" transform="translate(1273.35 4415.514)" fill="#302b2c" font-size="28" font-family="Quicksand-Bold, Quicksand" font-weight="700"><tspan x="0" y="0">1</tspan></text>
          </g>
          <g id="Group_14729" data-name="Group 14729" transform="translate(-231.536 -55.208)">
            <g transform="matrix(1, 0, 0, 1, 431.26, 4096.49)" filter="url(#Path_52932-9)">
              <path id="Path_52932-18" data-name="Path 52932" d="M37.271,0A37.271,37.271,0,1,1,0,37.271,37.271,37.271,0,0,1,37.271,0Z" transform="translate(809.97 271.61)" fill="#8fd2da"/>
            </g>
            <g transform="matrix(1, 0, 0, 1, 431.26, 4096.49)" filter="url(#Path_52931-9)">
              <path id="Path_52931-18" data-name="Path 52931" d="M345.682,74.417a28.9,28.9,0,1,1-28.9-28.9A28.9,28.9,0,0,1,345.682,74.417Z" transform="translate(530.46 234.47)" fill="#f9f9f9" fill-rule="evenodd"/>
            </g>
            <text id="_1-9" data-name="1" transform="translate(1273.35 4415.514)" fill="#302b2c" font-size="28" font-family="Quicksand-Bold, Quicksand" font-weight="700"><tspan x="0" y="0">1</tspan></text>
          </g>
        </g>
      </g>
    </g>
  </g>
</svg>
